<mxfile host="app.diagrams.net" agent="Mozilla/5.0 (Windows NT 10.0; Win64; x64) AppleWebKit/537.36 (KHTML, like Gecko) Chrome/132.0.0.0 Safari/537.36" version="26.0.6">
  <diagram name="Page-1" id="nXaa11pZkZT-A5hi-8ZA">
    <mxGraphModel dx="1793" dy="965" grid="1" gridSize="10" guides="1" tooltips="1" connect="1" arrows="1" fold="1" page="1" pageScale="1" pageWidth="1169" pageHeight="827" math="0" shadow="0">
      <root>
        <mxCell id="0" />
        <mxCell id="1" parent="0" />
        <mxCell id="P0eKyDnEb8iTKFPrrxN9-12" value="" style="edgeStyle=orthogonalEdgeStyle;rounded=0;orthogonalLoop=1;jettySize=auto;html=1;" parent="1" source="P0eKyDnEb8iTKFPrrxN9-3" target="P0eKyDnEb8iTKFPrrxN9-4" edge="1">
          <mxGeometry relative="1" as="geometry" />
        </mxCell>
        <mxCell id="P0eKyDnEb8iTKFPrrxN9-3" value="Create layers&lt;br&gt;street (base), satellite" style="rounded=1;whiteSpace=wrap;html=1;" parent="1" vertex="1">
          <mxGeometry x="60" y="50" width="120" height="60" as="geometry" />
        </mxCell>
        <mxCell id="P0eKyDnEb8iTKFPrrxN9-13" value="" style="edgeStyle=orthogonalEdgeStyle;rounded=0;orthogonalLoop=1;jettySize=auto;html=1;" parent="1" source="P0eKyDnEb8iTKFPrrxN9-4" target="P0eKyDnEb8iTKFPrrxN9-5" edge="1">
          <mxGeometry relative="1" as="geometry" />
        </mxCell>
        <mxCell id="P0eKyDnEb8iTKFPrrxN9-4" value="Add layers to the map" style="rounded=1;whiteSpace=wrap;html=1;" parent="1" vertex="1">
          <mxGeometry x="60" y="160" width="120" height="60" as="geometry" />
        </mxCell>
        <mxCell id="P0eKyDnEb8iTKFPrrxN9-14" value="" style="edgeStyle=orthogonalEdgeStyle;rounded=0;orthogonalLoop=1;jettySize=auto;html=1;" parent="1" source="P0eKyDnEb8iTKFPrrxN9-5" target="P0eKyDnEb8iTKFPrrxN9-8" edge="1">
          <mxGeometry relative="1" as="geometry" />
        </mxCell>
        <mxCell id="P0eKyDnEb8iTKFPrrxN9-5" value="Create marker groups and add to the map" style="rounded=1;whiteSpace=wrap;html=1;" parent="1" vertex="1">
          <mxGeometry x="60" y="260" width="120" height="60" as="geometry" />
        </mxCell>
        <mxCell id="P0eKyDnEb8iTKFPrrxN9-15" value="" style="edgeStyle=orthogonalEdgeStyle;rounded=0;orthogonalLoop=1;jettySize=auto;html=1;" parent="1" source="P0eKyDnEb8iTKFPrrxN9-8" target="P0eKyDnEb8iTKFPrrxN9-9" edge="1">
          <mxGeometry relative="1" as="geometry" />
        </mxCell>
        <mxCell id="P0eKyDnEb8iTKFPrrxN9-20" value="" style="edgeStyle=orthogonalEdgeStyle;rounded=0;orthogonalLoop=1;jettySize=auto;html=1;" parent="1" source="P0eKyDnEb8iTKFPrrxN9-8" target="P0eKyDnEb8iTKFPrrxN9-11" edge="1">
          <mxGeometry relative="1" as="geometry" />
        </mxCell>
        <mxCell id="P0eKyDnEb8iTKFPrrxN9-8" value="Create arrays storing marker data" style="rounded=1;whiteSpace=wrap;html=1;" parent="1" vertex="1">
          <mxGeometry x="60" y="370" width="120" height="60" as="geometry" />
        </mxCell>
        <mxCell id="P0eKyDnEb8iTKFPrrxN9-16" value="" style="edgeStyle=orthogonalEdgeStyle;rounded=0;orthogonalLoop=1;jettySize=auto;html=1;" parent="1" source="P0eKyDnEb8iTKFPrrxN9-9" target="P0eKyDnEb8iTKFPrrxN9-10" edge="1">
          <mxGeometry relative="1" as="geometry" />
        </mxCell>
        <mxCell id="P0eKyDnEb8iTKFPrrxN9-9" value="Create layer control and icon control and add to the map" style="rounded=1;whiteSpace=wrap;html=1;" parent="1" vertex="1">
          <mxGeometry x="60" y="480" width="120" height="60" as="geometry" />
        </mxCell>
        <mxCell id="P0eKyDnEb8iTKFPrrxN9-66" value="" style="edgeStyle=orthogonalEdgeStyle;rounded=0;orthogonalLoop=1;jettySize=auto;html=1;" parent="1" source="P0eKyDnEb8iTKFPrrxN9-10" target="P0eKyDnEb8iTKFPrrxN9-65" edge="1">
          <mxGeometry relative="1" as="geometry" />
        </mxCell>
        <mxCell id="P0eKyDnEb8iTKFPrrxN9-10" value="Implement the slide panel" style="rounded=1;whiteSpace=wrap;html=1;" parent="1" vertex="1">
          <mxGeometry x="60" y="590" width="120" height="60" as="geometry" />
        </mxCell>
        <mxCell id="P0eKyDnEb8iTKFPrrxN9-19" value="" style="edgeStyle=orthogonalEdgeStyle;rounded=0;orthogonalLoop=1;jettySize=auto;html=1;" parent="1" source="P0eKyDnEb8iTKFPrrxN9-11" target="P0eKyDnEb8iTKFPrrxN9-18" edge="1">
          <mxGeometry relative="1" as="geometry" />
        </mxCell>
        <mxCell id="P0eKyDnEb8iTKFPrrxN9-11" value="Loop diff marker data arrays" style="rounded=1;whiteSpace=wrap;html=1;" parent="1" vertex="1">
          <mxGeometry x="240" y="370" width="120" height="60" as="geometry" />
        </mxCell>
        <mxCell id="P0eKyDnEb8iTKFPrrxN9-18" value="assign events and add them to diff groups" style="rounded=1;whiteSpace=wrap;html=1;" parent="1" vertex="1">
          <mxGeometry x="420" y="370" width="120" height="60" as="geometry" />
        </mxCell>
        <mxCell id="P0eKyDnEb8iTKFPrrxN9-21" style="edgeStyle=orthogonalEdgeStyle;rounded=0;orthogonalLoop=1;jettySize=auto;html=1;exitX=0.5;exitY=1;exitDx=0;exitDy=0;" parent="1" source="P0eKyDnEb8iTKFPrrxN9-11" target="P0eKyDnEb8iTKFPrrxN9-11" edge="1">
          <mxGeometry relative="1" as="geometry" />
        </mxCell>
        <mxCell id="P0eKyDnEb8iTKFPrrxN9-29" value="" style="shape=umlLifeline;perimeter=lifelinePerimeter;whiteSpace=wrap;html=1;container=1;dropTarget=0;collapsible=0;recursiveResize=0;outlineConnect=0;portConstraint=eastwest;newEdgeStyle={&quot;curved&quot;:0,&quot;rounded&quot;:0};participant=umlActor;" parent="1" vertex="1">
          <mxGeometry x="1240" y="80" width="20" height="300" as="geometry" />
        </mxCell>
        <mxCell id="P0eKyDnEb8iTKFPrrxN9-30" value="Database&lt;br&gt;(locations)" style="shape=umlLifeline;perimeter=lifelinePerimeter;whiteSpace=wrap;html=1;container=1;dropTarget=0;collapsible=0;recursiveResize=0;outlineConnect=0;portConstraint=eastwest;newEdgeStyle={&quot;curved&quot;:0,&quot;rounded&quot;:0};" parent="1" vertex="1">
          <mxGeometry x="1400" y="80" width="100" height="300" as="geometry" />
        </mxCell>
        <mxCell id="P0eKyDnEb8iTKFPrrxN9-32" value="index.php" style="shape=umlLifeline;perimeter=lifelinePerimeter;whiteSpace=wrap;html=1;container=1;dropTarget=0;collapsible=0;recursiveResize=0;outlineConnect=0;portConstraint=eastwest;newEdgeStyle={&quot;curved&quot;:0,&quot;rounded&quot;:0};" parent="1" vertex="1">
          <mxGeometry x="1560" y="80" width="100" height="300" as="geometry" />
        </mxCell>
        <mxCell id="P0eKyDnEb8iTKFPrrxN9-34" value="display the map" style="html=1;verticalAlign=bottom;endArrow=open;dashed=1;endSize=8;curved=0;rounded=0;" parent="1" target="P0eKyDnEb8iTKFPrrxN9-29" edge="1">
          <mxGeometry relative="1" as="geometry">
            <mxPoint x="1610" y="230" as="sourcePoint" />
            <mxPoint x="1540" y="230" as="targetPoint" />
          </mxGeometry>
        </mxCell>
        <mxCell id="P0eKyDnEb8iTKFPrrxN9-35" value="Access the webpage" style="html=1;verticalAlign=bottom;endArrow=block;curved=0;rounded=0;" parent="1" target="P0eKyDnEb8iTKFPrrxN9-32" edge="1">
          <mxGeometry width="80" relative="1" as="geometry">
            <mxPoint x="1250" y="140" as="sourcePoint" />
            <mxPoint x="1330" y="140" as="targetPoint" />
          </mxGeometry>
        </mxCell>
        <mxCell id="P0eKyDnEb8iTKFPrrxN9-37" value="DB.php" style="html=1;verticalAlign=bottom;endArrow=block;curved=0;rounded=0;" parent="1" target="P0eKyDnEb8iTKFPrrxN9-30" edge="1">
          <mxGeometry width="80" relative="1" as="geometry">
            <mxPoint x="1609.5" y="160" as="sourcePoint" />
            <mxPoint x="1530" y="160" as="targetPoint" />
          </mxGeometry>
        </mxCell>
        <mxCell id="P0eKyDnEb8iTKFPrrxN9-38" value="successful" style="html=1;verticalAlign=bottom;endArrow=open;dashed=1;endSize=8;curved=0;rounded=0;" parent="1" edge="1">
          <mxGeometry x="-0.0022" relative="1" as="geometry">
            <mxPoint x="1450.1" y="210" as="sourcePoint" />
            <mxPoint x="1609.5" y="210" as="targetPoint" />
            <mxPoint as="offset" />
          </mxGeometry>
        </mxCell>
        <mxCell id="P0eKyDnEb8iTKFPrrxN9-48" value="grab data" style="html=1;verticalAlign=bottom;endArrow=block;curved=0;rounded=0;" parent="1" edge="1">
          <mxGeometry x="-0.0031" width="80" relative="1" as="geometry">
            <mxPoint x="1609.5" y="179.76" as="sourcePoint" />
            <mxPoint x="1450" y="179.76" as="targetPoint" />
            <mxPoint as="offset" />
          </mxGeometry>
        </mxCell>
        <mxCell id="P0eKyDnEb8iTKFPrrxN9-52" value="access the webpage" style="text;align=center;fontStyle=1;verticalAlign=middle;spacingLeft=3;spacingRight=3;strokeColor=none;rotatable=0;points=[[0,0.5],[1,0.5]];portConstraint=eastwest;html=1;" parent="1" vertex="1">
          <mxGeometry x="1200" y="30" width="80" height="26" as="geometry" />
        </mxCell>
        <mxCell id="P0eKyDnEb8iTKFPrrxN9-54" value="" style="shape=umlLifeline;perimeter=lifelinePerimeter;whiteSpace=wrap;html=1;container=1;dropTarget=0;collapsible=0;recursiveResize=0;outlineConnect=0;portConstraint=eastwest;newEdgeStyle={&quot;curved&quot;:0,&quot;rounded&quot;:0};participant=umlActor;" parent="1" vertex="1">
          <mxGeometry x="1750" y="60" width="20" height="300" as="geometry" />
        </mxCell>
        <mxCell id="P0eKyDnEb8iTKFPrrxN9-55" value="Database&lt;br&gt;(locations)" style="shape=umlLifeline;perimeter=lifelinePerimeter;whiteSpace=wrap;html=1;container=1;dropTarget=0;collapsible=0;recursiveResize=0;outlineConnect=0;portConstraint=eastwest;newEdgeStyle={&quot;curved&quot;:0,&quot;rounded&quot;:0};" parent="1" vertex="1">
          <mxGeometry x="1910" y="60" width="100" height="300" as="geometry" />
        </mxCell>
        <mxCell id="P0eKyDnEb8iTKFPrrxN9-56" value="DB.init.php" style="shape=umlLifeline;perimeter=lifelinePerimeter;whiteSpace=wrap;html=1;container=1;dropTarget=0;collapsible=0;recursiveResize=0;outlineConnect=0;portConstraint=eastwest;newEdgeStyle={&quot;curved&quot;:0,&quot;rounded&quot;:0};" parent="1" vertex="1">
          <mxGeometry x="2070" y="60" width="100" height="300" as="geometry" />
        </mxCell>
        <mxCell id="P0eKyDnEb8iTKFPrrxN9-57" value="press the reset button" style="html=1;verticalAlign=bottom;endArrow=block;curved=0;rounded=0;" parent="1" target="P0eKyDnEb8iTKFPrrxN9-56" edge="1">
          <mxGeometry x="0.0014" width="80" relative="1" as="geometry">
            <mxPoint x="1760" y="120" as="sourcePoint" />
            <mxPoint x="1840" y="120" as="targetPoint" />
            <mxPoint as="offset" />
          </mxGeometry>
        </mxCell>
        <mxCell id="P0eKyDnEb8iTKFPrrxN9-58" value="DB.php&amp;nbsp;" style="html=1;verticalAlign=bottom;endArrow=block;curved=0;rounded=0;" parent="1" target="P0eKyDnEb8iTKFPrrxN9-55" edge="1">
          <mxGeometry width="80" relative="1" as="geometry">
            <mxPoint x="2119.5" y="140" as="sourcePoint" />
            <mxPoint x="2040" y="140" as="targetPoint" />
          </mxGeometry>
        </mxCell>
        <mxCell id="P0eKyDnEb8iTKFPrrxN9-59" value="successful" style="html=1;verticalAlign=bottom;endArrow=open;dashed=1;endSize=8;curved=0;rounded=0;" parent="1" edge="1">
          <mxGeometry x="-0.0067" relative="1" as="geometry">
            <mxPoint x="1960.1" y="190" as="sourcePoint" />
            <mxPoint x="2119.5" y="190" as="targetPoint" />
            <mxPoint as="offset" />
          </mxGeometry>
        </mxCell>
        <mxCell id="P0eKyDnEb8iTKFPrrxN9-60" value="refresh the DB" style="html=1;verticalAlign=bottom;endArrow=block;curved=0;rounded=0;" parent="1" edge="1">
          <mxGeometry x="0.0031" width="80" relative="1" as="geometry">
            <mxPoint x="2119.5" y="160" as="sourcePoint" />
            <mxPoint x="1960" y="160" as="targetPoint" />
            <mxPoint as="offset" />
          </mxGeometry>
        </mxCell>
        <mxCell id="P0eKyDnEb8iTKFPrrxN9-61" value="index.php" style="shape=umlLifeline;perimeter=lifelinePerimeter;whiteSpace=wrap;html=1;container=1;dropTarget=0;collapsible=0;recursiveResize=0;outlineConnect=0;portConstraint=eastwest;newEdgeStyle={&quot;curved&quot;:0,&quot;rounded&quot;:0};" parent="1" vertex="1">
          <mxGeometry x="2230" y="60" width="100" height="300" as="geometry" />
        </mxCell>
        <mxCell id="P0eKyDnEb8iTKFPrrxN9-62" value="redirect to" style="html=1;verticalAlign=bottom;endArrow=block;curved=0;rounded=0;" parent="1" target="P0eKyDnEb8iTKFPrrxN9-61" edge="1">
          <mxGeometry width="80" relative="1" as="geometry">
            <mxPoint x="2120" y="220" as="sourcePoint" />
            <mxPoint x="2200" y="220" as="targetPoint" />
          </mxGeometry>
        </mxCell>
        <mxCell id="P0eKyDnEb8iTKFPrrxN9-63" value="display the webpage" style="html=1;verticalAlign=bottom;endArrow=open;dashed=1;endSize=8;curved=0;rounded=0;" parent="1" edge="1">
          <mxGeometry relative="1" as="geometry">
            <mxPoint x="2279.5" y="260" as="sourcePoint" />
            <mxPoint x="1759.9285714285716" y="260" as="targetPoint" />
          </mxGeometry>
        </mxCell>
        <mxCell id="P0eKyDnEb8iTKFPrrxN9-64" value="&lt;span style=&quot;color: rgb(0, 0, 0); font-family: Helvetica; font-size: 12px; font-style: normal; font-variant-ligatures: normal; font-variant-caps: normal; font-weight: 700; letter-spacing: normal; orphans: 2; text-align: center; text-indent: 0px; text-transform: none; widows: 2; word-spacing: 0px; -webkit-text-stroke-width: 0px; white-space: nowrap; background-color: rgb(251, 251, 251); text-decoration-thickness: initial; text-decoration-style: initial; text-decoration-color: initial; float: none; display: inline !important;&quot;&gt;reset the webpage&lt;/span&gt;" style="text;whiteSpace=wrap;html=1;" parent="1" vertex="1">
          <mxGeometry x="1690" y="34" width="210" height="40" as="geometry" />
        </mxCell>
        <mxCell id="P0eKyDnEb8iTKFPrrxN9-65" value="Implement the submit &amp;amp; reset button" style="rounded=1;whiteSpace=wrap;html=1;" parent="1" vertex="1">
          <mxGeometry x="60" y="690" width="120" height="60" as="geometry" />
        </mxCell>
        <mxCell id="6KVZDdYRLR2ok5qFMloY-1" value="" style="shape=umlLifeline;perimeter=lifelinePerimeter;whiteSpace=wrap;html=1;container=1;dropTarget=0;collapsible=0;recursiveResize=0;outlineConnect=0;portConstraint=eastwest;newEdgeStyle={&quot;curved&quot;:0,&quot;rounded&quot;:0};participant=umlActor;" parent="1" vertex="1">
          <mxGeometry x="2450" y="486" width="20" height="300" as="geometry" />
        </mxCell>
        <mxCell id="6KVZDdYRLR2ok5qFMloY-2" value="Database&lt;br&gt;(locations)" style="shape=umlLifeline;perimeter=lifelinePerimeter;whiteSpace=wrap;html=1;container=1;dropTarget=0;collapsible=0;recursiveResize=0;outlineConnect=0;portConstraint=eastwest;newEdgeStyle={&quot;curved&quot;:0,&quot;rounded&quot;:0};" parent="1" vertex="1">
          <mxGeometry x="2610" y="486" width="100" height="300" as="geometry" />
        </mxCell>
        <mxCell id="6KVZDdYRLR2ok5qFMloY-3" value="connect.php" style="shape=umlLifeline;perimeter=lifelinePerimeter;whiteSpace=wrap;html=1;container=1;dropTarget=0;collapsible=0;recursiveResize=0;outlineConnect=0;portConstraint=eastwest;newEdgeStyle={&quot;curved&quot;:0,&quot;rounded&quot;:0};" parent="1" vertex="1">
          <mxGeometry x="2990" y="476" width="100" height="300" as="geometry" />
        </mxCell>
        <mxCell id="6KVZDdYRLR2ok5qFMloY-4" value="Send a html form" style="html=1;verticalAlign=bottom;endArrow=block;curved=0;rounded=0;" parent="1" edge="1">
          <mxGeometry width="80" relative="1" as="geometry">
            <mxPoint x="2889.9285714285716" y="570" as="sourcePoint" />
            <mxPoint x="3039.5" y="570" as="targetPoint" />
          </mxGeometry>
        </mxCell>
        <mxCell id="6KVZDdYRLR2ok5qFMloY-5" value="DB.php&amp;nbsp;" style="html=1;verticalAlign=bottom;endArrow=block;curved=0;rounded=0;" parent="1" source="6KVZDdYRLR2ok5qFMloY-3" edge="1">
          <mxGeometry width="80" relative="1" as="geometry">
            <mxPoint x="2819.5" y="590" as="sourcePoint" />
            <mxPoint x="2659.8103448275865" y="590" as="targetPoint" />
          </mxGeometry>
        </mxCell>
        <mxCell id="6KVZDdYRLR2ok5qFMloY-6" value="successful" style="html=1;verticalAlign=bottom;endArrow=open;dashed=1;endSize=8;curved=0;rounded=0;" parent="1" edge="1">
          <mxGeometry x="-0.0067" relative="1" as="geometry">
            <mxPoint x="2660" y="635.66" as="sourcePoint" />
            <mxPoint x="3039.5" y="635.6599999999999" as="targetPoint" />
            <mxPoint as="offset" />
          </mxGeometry>
        </mxCell>
        <mxCell id="6KVZDdYRLR2ok5qFMloY-7" value="Insert data into the DB" style="html=1;verticalAlign=bottom;endArrow=block;curved=0;rounded=0;" parent="1" source="6KVZDdYRLR2ok5qFMloY-3" edge="1">
          <mxGeometry width="80" relative="1" as="geometry">
            <mxPoint x="2819.5" y="609.66" as="sourcePoint" />
            <mxPoint x="2660" y="609.66" as="targetPoint" />
          </mxGeometry>
        </mxCell>
        <mxCell id="6KVZDdYRLR2ok5qFMloY-8" value="index.php" style="shape=umlLifeline;perimeter=lifelinePerimeter;whiteSpace=wrap;html=1;container=1;dropTarget=0;collapsible=0;recursiveResize=0;outlineConnect=0;portConstraint=eastwest;newEdgeStyle={&quot;curved&quot;:0,&quot;rounded&quot;:0};" parent="1" vertex="1">
          <mxGeometry x="3150" y="476" width="100" height="300" as="geometry" />
        </mxCell>
        <mxCell id="6KVZDdYRLR2ok5qFMloY-9" value="redirect to" style="html=1;verticalAlign=bottom;endArrow=block;curved=0;rounded=0;" parent="1" edge="1">
          <mxGeometry width="80" relative="1" as="geometry">
            <mxPoint x="3039.8103448275865" y="660" as="sourcePoint" />
            <mxPoint x="3199.5" y="660" as="targetPoint" />
          </mxGeometry>
        </mxCell>
        <mxCell id="6KVZDdYRLR2ok5qFMloY-10" value="display the webpage" style="html=1;verticalAlign=bottom;endArrow=open;dashed=1;endSize=8;curved=0;rounded=0;" parent="1" source="6KVZDdYRLR2ok5qFMloY-8" edge="1">
          <mxGeometry relative="1" as="geometry">
            <mxPoint x="2979.5" y="690" as="sourcePoint" />
            <mxPoint x="2459.9285714285716" y="690" as="targetPoint" />
          </mxGeometry>
        </mxCell>
        <mxCell id="6KVZDdYRLR2ok5qFMloY-11" value="&lt;span style=&quot;color: rgb(0, 0, 0); font-family: Helvetica; font-size: 12px; font-style: normal; font-variant-ligatures: normal; font-variant-caps: normal; font-weight: 700; letter-spacing: normal; orphans: 2; text-align: center; text-indent: 0px; text-transform: none; widows: 2; word-spacing: 0px; -webkit-text-stroke-width: 0px; white-space: nowrap; background-color: rgb(251, 251, 251); text-decoration-thickness: initial; text-decoration-style: initial; text-decoration-color: initial; float: none; display: inline !important;&quot;&gt;add new location 2&lt;/span&gt;" style="text;whiteSpace=wrap;html=1;" parent="1" vertex="1">
          <mxGeometry x="2390" y="460" width="210" height="40" as="geometry" />
        </mxCell>
        <mxCell id="6KVZDdYRLR2ok5qFMloY-12" value="website: modal" style="shape=umlLifeline;perimeter=lifelinePerimeter;whiteSpace=wrap;html=1;container=1;dropTarget=0;collapsible=0;recursiveResize=0;outlineConnect=0;portConstraint=eastwest;newEdgeStyle={&quot;curved&quot;:0,&quot;rounded&quot;:0};" parent="1" vertex="1">
          <mxGeometry x="2840" y="476" width="100" height="300" as="geometry" />
        </mxCell>
        <mxCell id="6KVZDdYRLR2ok5qFMloY-15" value="Open modal" style="html=1;verticalAlign=bottom;endArrow=block;curved=0;rounded=0;" parent="1" edge="1">
          <mxGeometry width="80" relative="1" as="geometry">
            <mxPoint x="2459.8103448275865" y="550" as="sourcePoint" />
            <mxPoint x="2889.5" y="550" as="targetPoint" />
          </mxGeometry>
        </mxCell>
        <mxCell id="6KVZDdYRLR2ok5qFMloY-19" value="" style="edgeStyle=orthogonalEdgeStyle;rounded=0;orthogonalLoop=1;jettySize=auto;html=1;" parent="1" source="6KVZDdYRLR2ok5qFMloY-16" target="6KVZDdYRLR2ok5qFMloY-18" edge="1">
          <mxGeometry relative="1" as="geometry" />
        </mxCell>
        <mxCell id="6KVZDdYRLR2ok5qFMloY-21" value="" style="edgeStyle=orthogonalEdgeStyle;rounded=0;orthogonalLoop=1;jettySize=auto;html=1;" parent="1" source="6KVZDdYRLR2ok5qFMloY-16" target="6KVZDdYRLR2ok5qFMloY-20" edge="1">
          <mxGeometry relative="1" as="geometry" />
        </mxCell>
        <mxCell id="6KVZDdYRLR2ok5qFMloY-16" value="Home&lt;br&gt;(Interactive Map)" style="rounded=0;whiteSpace=wrap;html=1;" parent="1" vertex="1">
          <mxGeometry x="150" y="930" width="120" height="60" as="geometry" />
        </mxCell>
        <mxCell id="6KVZDdYRLR2ok5qFMloY-17" value="Sitemap" style="text;html=1;align=center;verticalAlign=middle;whiteSpace=wrap;rounded=0;" parent="1" vertex="1">
          <mxGeometry x="50" y="870" width="60" height="30" as="geometry" />
        </mxCell>
        <mxCell id="6KVZDdYRLR2ok5qFMloY-18" value="Database search" style="rounded=0;whiteSpace=wrap;html=1;" parent="1" vertex="1">
          <mxGeometry x="150" y="1070" width="120" height="60" as="geometry" />
        </mxCell>
        <mxCell id="6KVZDdYRLR2ok5qFMloY-20" value="About us" style="rounded=0;whiteSpace=wrap;html=1;" parent="1" vertex="1">
          <mxGeometry x="370" y="1070" width="120" height="60" as="geometry" />
        </mxCell>
        <mxCell id="I3coor1iJ0MH9hTttTZM-3" value="" style="shape=umlLifeline;perimeter=lifelinePerimeter;whiteSpace=wrap;html=1;container=1;dropTarget=0;collapsible=0;recursiveResize=0;outlineConnect=0;portConstraint=eastwest;newEdgeStyle={&quot;curved&quot;:0,&quot;rounded&quot;:0};participant=umlActor;" parent="1" vertex="1">
          <mxGeometry x="2430" y="100" width="20" height="300" as="geometry" />
        </mxCell>
        <mxCell id="I3coor1iJ0MH9hTttTZM-4" value="Database&lt;br&gt;(locations)" style="shape=umlLifeline;perimeter=lifelinePerimeter;whiteSpace=wrap;html=1;container=1;dropTarget=0;collapsible=0;recursiveResize=0;outlineConnect=0;portConstraint=eastwest;newEdgeStyle={&quot;curved&quot;:0,&quot;rounded&quot;:0};" parent="1" vertex="1">
          <mxGeometry x="2590" y="100" width="100" height="300" as="geometry" />
        </mxCell>
        <mxCell id="I3coor1iJ0MH9hTttTZM-13" value="&lt;span style=&quot;text-align: center;&quot;&gt;&lt;b&gt;Display entries in DB&lt;/b&gt;&lt;/span&gt;" style="text;whiteSpace=wrap;html=1;" parent="1" vertex="1">
          <mxGeometry x="2370" y="50" width="210" height="40" as="geometry" />
        </mxCell>
        <mxCell id="I3coor1iJ0MH9hTttTZM-14" value="index.php" style="shape=umlLifeline;perimeter=lifelinePerimeter;whiteSpace=wrap;html=1;container=1;dropTarget=0;collapsible=0;recursiveResize=0;outlineConnect=0;portConstraint=eastwest;newEdgeStyle={&quot;curved&quot;:0,&quot;rounded&quot;:0};" parent="1" vertex="1">
          <mxGeometry x="2770" y="100" width="100" height="300" as="geometry" />
        </mxCell>
        <mxCell id="I3coor1iJ0MH9hTttTZM-16" value="click DB search on navbar" style="html=1;verticalAlign=bottom;endArrow=block;curved=0;rounded=0;" parent="1" target="I3coor1iJ0MH9hTttTZM-14" edge="1">
          <mxGeometry x="0.0013" width="80" relative="1" as="geometry">
            <mxPoint x="2440" y="160" as="sourcePoint" />
            <mxPoint x="2520" y="160" as="targetPoint" />
            <mxPoint as="offset" />
          </mxGeometry>
        </mxCell>
        <mxCell id="I3coor1iJ0MH9hTttTZM-17" value="text_form.php" style="shape=umlLifeline;perimeter=lifelinePerimeter;whiteSpace=wrap;html=1;container=1;dropTarget=0;collapsible=0;recursiveResize=0;outlineConnect=0;portConstraint=eastwest;newEdgeStyle={&quot;curved&quot;:0,&quot;rounded&quot;:0};" parent="1" vertex="1">
          <mxGeometry x="2960" y="100" width="100" height="300" as="geometry" />
        </mxCell>
        <mxCell id="I3coor1iJ0MH9hTttTZM-19" value="redirect to" style="html=1;verticalAlign=bottom;endArrow=block;curved=0;rounded=0;" parent="1" target="I3coor1iJ0MH9hTttTZM-17" edge="1">
          <mxGeometry width="80" relative="1" as="geometry">
            <mxPoint x="2820" y="180" as="sourcePoint" />
            <mxPoint x="2900" y="180" as="targetPoint" />
          </mxGeometry>
        </mxCell>
        <mxCell id="I3coor1iJ0MH9hTttTZM-22" value="DB.php" style="html=1;verticalAlign=bottom;endArrow=block;curved=0;rounded=0;" parent="1" edge="1">
          <mxGeometry width="80" relative="1" as="geometry">
            <mxPoint x="3009.5" y="210.0000000000001" as="sourcePoint" />
            <mxPoint x="2639.8103448275865" y="210.0000000000001" as="targetPoint" />
          </mxGeometry>
        </mxCell>
        <mxCell id="I3coor1iJ0MH9hTttTZM-24" value="successful" style="html=1;verticalAlign=bottom;endArrow=open;dashed=1;endSize=8;curved=0;rounded=0;" parent="1" edge="1">
          <mxGeometry relative="1" as="geometry">
            <mxPoint x="2640" y="260" as="sourcePoint" />
            <mxPoint x="3009.5" y="260" as="targetPoint" />
          </mxGeometry>
        </mxCell>
        <mxCell id="I3coor1iJ0MH9hTttTZM-25" value="grab data" style="html=1;verticalAlign=bottom;endArrow=block;curved=0;rounded=0;" parent="1" edge="1">
          <mxGeometry width="80" relative="1" as="geometry">
            <mxPoint x="3009.69" y="229.71000000000012" as="sourcePoint" />
            <mxPoint x="2640.0003448275866" y="229.71000000000012" as="targetPoint" />
          </mxGeometry>
        </mxCell>
        <mxCell id="I3coor1iJ0MH9hTttTZM-36" value="" style="shape=umlLifeline;perimeter=lifelinePerimeter;whiteSpace=wrap;html=1;container=1;dropTarget=0;collapsible=0;recursiveResize=0;outlineConnect=0;portConstraint=eastwest;newEdgeStyle={&quot;curved&quot;:0,&quot;rounded&quot;:0};participant=umlActor;" parent="1" vertex="1">
          <mxGeometry x="3610" y="100" width="20" height="300" as="geometry" />
        </mxCell>
        <mxCell id="I3coor1iJ0MH9hTttTZM-38" value="&lt;div style=&quot;text-align: center;&quot;&gt;&lt;span style=&quot;background-color: transparent; color: light-dark(rgb(0, 0, 0), rgb(255, 255, 255));&quot;&gt;&lt;b&gt;Get ideas&lt;/b&gt;&lt;/span&gt;&lt;/div&gt;" style="text;whiteSpace=wrap;html=1;" parent="1" vertex="1">
          <mxGeometry x="3570" y="56" width="210" height="40" as="geometry" />
        </mxCell>
        <mxCell id="I3coor1iJ0MH9hTttTZM-39" value="index.php" style="shape=umlLifeline;perimeter=lifelinePerimeter;whiteSpace=wrap;html=1;container=1;dropTarget=0;collapsible=0;recursiveResize=0;outlineConnect=0;portConstraint=eastwest;newEdgeStyle={&quot;curved&quot;:0,&quot;rounded&quot;:0};" parent="1" vertex="1">
          <mxGeometry x="3780" y="100" width="100" height="300" as="geometry" />
        </mxCell>
        <mxCell id="I3coor1iJ0MH9hTttTZM-40" value="click No ideas" style="html=1;verticalAlign=bottom;endArrow=block;curved=0;rounded=0;" parent="1" target="I3coor1iJ0MH9hTttTZM-39" edge="1">
          <mxGeometry x="0.0013" width="80" relative="1" as="geometry">
            <mxPoint x="3620" y="160" as="sourcePoint" />
            <mxPoint x="3700" y="160" as="targetPoint" />
            <mxPoint as="offset" />
          </mxGeometry>
        </mxCell>
        <mxCell id="I3coor1iJ0MH9hTttTZM-41" value="ideas.php" style="shape=umlLifeline;perimeter=lifelinePerimeter;whiteSpace=wrap;html=1;container=1;dropTarget=0;collapsible=0;recursiveResize=0;outlineConnect=0;portConstraint=eastwest;newEdgeStyle={&quot;curved&quot;:0,&quot;rounded&quot;:0};" parent="1" vertex="1">
          <mxGeometry x="3970" y="100" width="100" height="300" as="geometry" />
        </mxCell>
        <mxCell id="I3coor1iJ0MH9hTttTZM-42" value="send a GET request to /help&amp;nbsp;" style="html=1;verticalAlign=bottom;endArrow=block;curved=0;rounded=0;" parent="1" target="I3coor1iJ0MH9hTttTZM-39" edge="1">
          <mxGeometry width="80" relative="1" as="geometry">
            <mxPoint x="3620" y="179.58" as="sourcePoint" />
            <mxPoint x="3809.5" y="179.58" as="targetPoint" />
          </mxGeometry>
        </mxCell>
        <mxCell id="I3coor1iJ0MH9hTttTZM-49" value="include" style="html=1;verticalAlign=bottom;endArrow=block;curved=0;rounded=0;" parent="1" target="I3coor1iJ0MH9hTttTZM-41" edge="1">
          <mxGeometry width="80" relative="1" as="geometry">
            <mxPoint x="3830" y="200" as="sourcePoint" />
            <mxPoint x="3910" y="200" as="targetPoint" />
          </mxGeometry>
        </mxCell>
        <mxCell id="I3coor1iJ0MH9hTttTZM-50" value="appear" style="html=1;verticalAlign=bottom;endArrow=open;dashed=1;endSize=8;curved=0;rounded=0;" parent="1" source="I3coor1iJ0MH9hTttTZM-41" edge="1">
          <mxGeometry x="0.0044" relative="1" as="geometry">
            <mxPoint x="4011.5" y="240" as="sourcePoint" />
            <mxPoint x="3832" y="240" as="targetPoint" />
            <mxPoint as="offset" />
          </mxGeometry>
        </mxCell>
        <mxCell id="I3coor1iJ0MH9hTttTZM-51" value="display" style="html=1;verticalAlign=bottom;endArrow=open;dashed=1;endSize=8;curved=0;rounded=0;" parent="1" target="I3coor1iJ0MH9hTttTZM-36" edge="1">
          <mxGeometry x="0.0044" relative="1" as="geometry">
            <mxPoint x="3828" y="279.5" as="sourcePoint" />
            <mxPoint x="3640" y="279.5" as="targetPoint" />
            <mxPoint as="offset" />
          </mxGeometry>
        </mxCell>
        <mxCell id="yW-nKpANllf4GFsAFB5Q-34" value="" style="shape=umlLifeline;perimeter=lifelinePerimeter;whiteSpace=wrap;html=1;container=1;dropTarget=0;collapsible=0;recursiveResize=0;outlineConnect=0;portConstraint=eastwest;newEdgeStyle={&quot;curved&quot;:0,&quot;rounded&quot;:0};participant=umlActor;" parent="1" vertex="1">
          <mxGeometry x="1250" y="520" width="20" height="300" as="geometry" />
        </mxCell>
        <mxCell id="yW-nKpANllf4GFsAFB5Q-35" value="Database&lt;br&gt;(locations)" style="shape=umlLifeline;perimeter=lifelinePerimeter;whiteSpace=wrap;html=1;container=1;dropTarget=0;collapsible=0;recursiveResize=0;outlineConnect=0;portConstraint=eastwest;newEdgeStyle={&quot;curved&quot;:0,&quot;rounded&quot;:0};" parent="1" vertex="1">
          <mxGeometry x="1410" y="520" width="100" height="300" as="geometry" />
        </mxCell>
        <mxCell id="yW-nKpANllf4GFsAFB5Q-36" value="index.php" style="shape=umlLifeline;perimeter=lifelinePerimeter;whiteSpace=wrap;html=1;container=1;dropTarget=0;collapsible=0;recursiveResize=0;outlineConnect=0;portConstraint=eastwest;newEdgeStyle={&quot;curved&quot;:0,&quot;rounded&quot;:0};" parent="1" vertex="1">
          <mxGeometry x="1570" y="520" width="100" height="300" as="geometry" />
        </mxCell>
        <mxCell id="yW-nKpANllf4GFsAFB5Q-37" value="grab data" style="html=1;verticalAlign=bottom;endArrow=open;dashed=1;endSize=8;curved=0;rounded=0;" parent="1" source="yW-nKpANllf4GFsAFB5Q-44" target="yW-nKpANllf4GFsAFB5Q-35" edge="1">
          <mxGeometry relative="1" as="geometry">
            <mxPoint x="1790.15" y="660" as="sourcePoint" />
            <mxPoint x="1429.85" y="660" as="targetPoint" />
          </mxGeometry>
        </mxCell>
        <mxCell id="yW-nKpANllf4GFsAFB5Q-38" value="Access the webpage" style="html=1;verticalAlign=bottom;endArrow=block;curved=0;rounded=0;" parent="1" target="yW-nKpANllf4GFsAFB5Q-36" edge="1">
          <mxGeometry width="80" relative="1" as="geometry">
            <mxPoint x="1260" y="580" as="sourcePoint" />
            <mxPoint x="1340" y="580" as="targetPoint" />
          </mxGeometry>
        </mxCell>
        <mxCell id="yW-nKpANllf4GFsAFB5Q-39" value="DB.php" style="html=1;verticalAlign=bottom;endArrow=block;curved=0;rounded=0;" parent="1" target="yW-nKpANllf4GFsAFB5Q-35" edge="1">
          <mxGeometry width="80" relative="1" as="geometry">
            <mxPoint x="1619.5" y="600" as="sourcePoint" />
            <mxPoint x="1540" y="600" as="targetPoint" />
          </mxGeometry>
        </mxCell>
        <mxCell id="yW-nKpANllf4GFsAFB5Q-40" value="successful" style="html=1;verticalAlign=bottom;endArrow=open;dashed=1;endSize=8;curved=0;rounded=0;" parent="1" edge="1">
          <mxGeometry x="-0.0022" relative="1" as="geometry">
            <mxPoint x="1460.1" y="625.6" as="sourcePoint" />
            <mxPoint x="1619.5" y="625.6" as="targetPoint" />
            <mxPoint as="offset" />
          </mxGeometry>
        </mxCell>
        <mxCell id="yW-nKpANllf4GFsAFB5Q-41" value="include" style="html=1;verticalAlign=bottom;endArrow=block;curved=0;rounded=0;" parent="1" edge="1">
          <mxGeometry x="-0.0031" width="80" relative="1" as="geometry">
            <mxPoint x="1619.6999999999998" y="640" as="sourcePoint" />
            <mxPoint x="1794.5" y="640" as="targetPoint" />
            <mxPoint as="offset" />
          </mxGeometry>
        </mxCell>
        <mxCell id="yW-nKpANllf4GFsAFB5Q-42" value="access the webpage 2" style="text;align=center;fontStyle=1;verticalAlign=middle;spacingLeft=3;spacingRight=3;strokeColor=none;rotatable=0;points=[[0,0.5],[1,0.5]];portConstraint=eastwest;html=1;" parent="1" vertex="1">
          <mxGeometry x="1211" y="470" width="80" height="26" as="geometry" />
        </mxCell>
        <mxCell id="yW-nKpANllf4GFsAFB5Q-44" value="display.php" style="shape=umlLifeline;perimeter=lifelinePerimeter;whiteSpace=wrap;html=1;container=1;dropTarget=0;collapsible=0;recursiveResize=0;outlineConnect=0;portConstraint=eastwest;newEdgeStyle={&quot;curved&quot;:0,&quot;rounded&quot;:0};" parent="1" vertex="1">
          <mxGeometry x="1745" y="520" width="100" height="300" as="geometry" />
        </mxCell>
        <mxCell id="yW-nKpANllf4GFsAFB5Q-45" value="successful" style="html=1;verticalAlign=bottom;endArrow=open;dashed=1;endSize=8;curved=0;rounded=0;" parent="1" edge="1">
          <mxGeometry x="-0.0022" relative="1" as="geometry">
            <mxPoint x="1460" y="700" as="sourcePoint" />
            <mxPoint x="1794.5" y="700" as="targetPoint" />
            <mxPoint as="offset" />
          </mxGeometry>
        </mxCell>
        <mxCell id="yW-nKpANllf4GFsAFB5Q-46" value="provide markers" style="html=1;verticalAlign=bottom;endArrow=block;curved=0;rounded=0;" parent="1" edge="1">
          <mxGeometry width="80" relative="1" as="geometry">
            <mxPoint x="1794.5" y="730" as="sourcePoint" />
            <mxPoint x="1619.6999999999998" y="730" as="targetPoint" />
          </mxGeometry>
        </mxCell>
        <mxCell id="yW-nKpANllf4GFsAFB5Q-47" value="display the map" style="html=1;verticalAlign=bottom;endArrow=open;dashed=1;endSize=8;curved=0;rounded=0;" parent="1" edge="1">
          <mxGeometry relative="1" as="geometry">
            <mxPoint x="1620" y="750" as="sourcePoint" />
            <mxPoint x="1260" y="750" as="targetPoint" />
          </mxGeometry>
        </mxCell>
        <mxCell id="yW-nKpANllf4GFsAFB5Q-65" value="display.php" style="text;align=center;fontStyle=1;verticalAlign=middle;spacingLeft=3;spacingRight=3;strokeColor=none;rotatable=0;points=[[0,0.5],[1,0.5]];portConstraint=eastwest;html=1;" parent="1" vertex="1">
          <mxGeometry x="1020" y="34" width="80" height="26" as="geometry" />
        </mxCell>
        <mxCell id="yW-nKpANllf4GFsAFB5Q-66" style="edgeStyle=orthogonalEdgeStyle;rounded=0;orthogonalLoop=1;jettySize=auto;html=1;entryX=0;entryY=0.5;entryDx=0;entryDy=0;" parent="1" source="yW-nKpANllf4GFsAFB5Q-67" target="yW-nKpANllf4GFsAFB5Q-69" edge="1">
          <mxGeometry relative="1" as="geometry">
            <mxPoint x="1060" y="224" as="targetPoint" />
          </mxGeometry>
        </mxCell>
        <mxCell id="yW-nKpANllf4GFsAFB5Q-67" value="select all query" style="rounded=1;whiteSpace=wrap;html=1;" parent="1" vertex="1">
          <mxGeometry x="1000" y="104" width="120" height="60" as="geometry" />
        </mxCell>
        <mxCell id="yW-nKpANllf4GFsAFB5Q-68" style="edgeStyle=orthogonalEdgeStyle;rounded=0;orthogonalLoop=1;jettySize=auto;html=1;" parent="1" source="yW-nKpANllf4GFsAFB5Q-69" target="yW-nKpANllf4GFsAFB5Q-71" edge="1">
          <mxGeometry relative="1" as="geometry" />
        </mxCell>
        <mxCell id="yW-nKpANllf4GFsAFB5Q-69" value="select result &amp;gt; 0" style="rhombus;whiteSpace=wrap;html=1;direction=south;" parent="1" vertex="1">
          <mxGeometry x="1005" y="234" width="110" height="100" as="geometry" />
        </mxCell>
        <mxCell id="yW-nKpANllf4GFsAFB5Q-70" value="" style="edgeStyle=orthogonalEdgeStyle;rounded=0;orthogonalLoop=1;jettySize=auto;html=1;" parent="1" source="yW-nKpANllf4GFsAFB5Q-71" target="yW-nKpANllf4GFsAFB5Q-73" edge="1">
          <mxGeometry relative="1" as="geometry" />
        </mxCell>
        <mxCell id="yW-nKpANllf4GFsAFB5Q-71" value="which category" style="rhombus;whiteSpace=wrap;html=1;direction=south;" parent="1" vertex="1">
          <mxGeometry x="1005" y="374" width="110" height="100" as="geometry" />
        </mxCell>
        <mxCell id="yW-nKpANllf4GFsAFB5Q-72" value="" style="edgeStyle=orthogonalEdgeStyle;rounded=0;orthogonalLoop=1;jettySize=auto;html=1;" parent="1" source="yW-nKpANllf4GFsAFB5Q-73" target="yW-nKpANllf4GFsAFB5Q-75" edge="1">
          <mxGeometry relative="1" as="geometry" />
        </mxCell>
        <mxCell id="yW-nKpANllf4GFsAFB5Q-73" value="create different markers" style="rounded=1;whiteSpace=wrap;html=1;" parent="1" vertex="1">
          <mxGeometry x="1000" y="534" width="120" height="60" as="geometry" />
        </mxCell>
        <mxCell id="yW-nKpANllf4GFsAFB5Q-74" value="Ys" style="text;html=1;align=center;verticalAlign=middle;whiteSpace=wrap;rounded=0;" parent="1" vertex="1">
          <mxGeometry x="1070" y="334" width="60" height="30" as="geometry" />
        </mxCell>
        <mxCell id="yW-nKpANllf4GFsAFB5Q-75" value="assign pop-up &amp;amp; event to them" style="rounded=1;whiteSpace=wrap;html=1;" parent="1" vertex="1">
          <mxGeometry x="1000" y="674" width="120" height="60" as="geometry" />
        </mxCell>
        <mxCell id="FCpu_rjdUVsRsIbczV-i-1" value="Login" style="text;html=1;align=center;verticalAlign=middle;whiteSpace=wrap;rounded=0;" vertex="1" parent="1">
          <mxGeometry x="1210" y="880" width="60" height="30" as="geometry" />
        </mxCell>
        <mxCell id="FCpu_rjdUVsRsIbczV-i-8" value="" style="edgeStyle=orthogonalEdgeStyle;rounded=0;orthogonalLoop=1;jettySize=auto;html=1;" edge="1" parent="1" source="FCpu_rjdUVsRsIbczV-i-4" target="FCpu_rjdUVsRsIbczV-i-6">
          <mxGeometry relative="1" as="geometry" />
        </mxCell>
        <mxCell id="FCpu_rjdUVsRsIbczV-i-4" value="login page" style="rounded=1;whiteSpace=wrap;html=1;" vertex="1" parent="1">
          <mxGeometry x="1220" y="970" width="120" height="60" as="geometry" />
        </mxCell>
        <mxCell id="FCpu_rjdUVsRsIbczV-i-5" value="admin area" style="rounded=1;whiteSpace=wrap;html=1;" vertex="1" parent="1">
          <mxGeometry x="1615" y="930" width="120" height="60" as="geometry" />
        </mxCell>
        <mxCell id="FCpu_rjdUVsRsIbczV-i-6" value="login credential" style="rhombus;whiteSpace=wrap;html=1;" vertex="1" parent="1">
          <mxGeometry x="1450" y="960" width="80" height="80" as="geometry" />
        </mxCell>
        <mxCell id="FCpu_rjdUVsRsIbczV-i-7" value="user area" style="rounded=1;whiteSpace=wrap;html=1;" vertex="1" parent="1">
          <mxGeometry x="1615" y="1050" width="120" height="60" as="geometry" />
        </mxCell>
        <mxCell id="FCpu_rjdUVsRsIbczV-i-9" value="" style="endArrow=classic;html=1;rounded=0;entryX=0;entryY=0.5;entryDx=0;entryDy=0;" edge="1" parent="1" source="FCpu_rjdUVsRsIbczV-i-6" target="FCpu_rjdUVsRsIbczV-i-5">
          <mxGeometry width="50" height="50" relative="1" as="geometry">
            <mxPoint x="1600" y="980" as="sourcePoint" />
            <mxPoint x="1650" y="930" as="targetPoint" />
          </mxGeometry>
        </mxCell>
        <mxCell id="FCpu_rjdUVsRsIbczV-i-10" value="" style="endArrow=classic;html=1;rounded=0;entryX=0;entryY=0.5;entryDx=0;entryDy=0;" edge="1" parent="1" source="FCpu_rjdUVsRsIbczV-i-6" target="FCpu_rjdUVsRsIbczV-i-7">
          <mxGeometry width="50" height="50" relative="1" as="geometry">
            <mxPoint x="1520" y="1090" as="sourcePoint" />
            <mxPoint x="1570" y="1040" as="targetPoint" />
          </mxGeometry>
        </mxCell>
        <mxCell id="FCpu_rjdUVsRsIbczV-i-16" value="registration page" style="shape=umlLifeline;perimeter=lifelinePerimeter;whiteSpace=wrap;html=1;container=1;dropTarget=0;collapsible=0;recursiveResize=0;outlineConnect=0;portConstraint=eastwest;newEdgeStyle={&quot;curved&quot;:0,&quot;rounded&quot;:0};" vertex="1" parent="1">
          <mxGeometry x="1250" y="1240" width="100" height="300" as="geometry" />
        </mxCell>
        <mxCell id="FCpu_rjdUVsRsIbczV-i-17" value="registration,php" style="shape=umlLifeline;perimeter=lifelinePerimeter;whiteSpace=wrap;html=1;container=1;dropTarget=0;collapsible=0;recursiveResize=0;outlineConnect=0;portConstraint=eastwest;newEdgeStyle={&quot;curved&quot;:0,&quot;rounded&quot;:0};" vertex="1" parent="1">
          <mxGeometry x="1490" y="1241" width="100" height="300" as="geometry" />
        </mxCell>
        <mxCell id="FCpu_rjdUVsRsIbczV-i-18" value="redirect to" style="html=1;verticalAlign=bottom;endArrow=block;curved=0;rounded=0;" edge="1" parent="1" target="FCpu_rjdUVsRsIbczV-i-17">
          <mxGeometry width="80" relative="1" as="geometry">
            <mxPoint x="1300" y="1350" as="sourcePoint" />
            <mxPoint x="1380" y="1350" as="targetPoint" />
          </mxGeometry>
        </mxCell>
      </root>
    </mxGraphModel>
  </diagram>
</mxfile>
